<?xml version="1.0" standalone="no"?>
<!DOCTYPE svg PUBLIC "-//W3C//DTD SVG 20010904//EN"
 "http://www.w3.org/TR/2001/REC-SVG-20010904/DTD/svg10.dtd">
<svg version="1.0" xmlns="http://www.w3.org/2000/svg"
 width="1024.000000pt" height="1024.000000pt" viewBox="0 0 1024.000000 1024.000000"
 preserveAspectRatio="xMidYMid meet">
<metadata>
Created by potrace 1.11, written by Peter Selinger 2001-2013
</metadata>
<g transform="translate(0.000000,1024.000000) scale(0.100000,-0.100000)"
fill="#000000" stroke="none">
<path d="M3094 5403 c-18 -59 -38 -83 -78 -94 -23 -6 -47 -13 -54 -15 -8 -2
-12 -15 -10 -31 3 -27 6 -28 66 -31 l62 -3 0 -229 0 -230 35 0 35 0 0 325 0
325 -25 0 c-16 0 -28 -7 -31 -17z"/>
<path d="M3444 5401 c-80 -49 -109 -131 -109 -316 0 -96 5 -145 18 -187 60
-197 253 -197 314 0 28 88 25 307 -5 386 -44 119 -135 168 -218 117z m109 -71
c46 -37 62 -99 62 -250 0 -124 -2 -139 -25 -185 -14 -27 -37 -57 -52 -65 -25
-13 -31 -13 -55 0 -16 8 -39 38 -53 65 -23 46 -25 61 -25 185 0 107 4 145 18
182 19 50 57 88 87 88 10 0 29 -9 43 -20z"/>
<path d="M3860 5398 c-54 -27 -88 -83 -97 -157 l-6 -51 35 0 c34 0 36 2 42 41
14 90 63 131 133 113 47 -12 75 -51 80 -111 6 -66 -13 -91 -131 -177 -115 -82
-153 -137 -163 -230 l-6 -56 187 0 186 0 0 40 0 40 -145 0 c-101 0 -145 3
-145 11 0 31 49 83 128 137 48 33 97 71 109 84 91 98 57 283 -60 327 -45 17
-99 13 -147 -11z"/>
<path d="M4286 5211 c-99 -164 -126 -217 -126 -245 l0 -36 120 0 120 0 0 -80
0 -80 35 0 35 0 0 80 0 80 40 0 c39 0 40 1 40 35 0 34 -1 35 -40 35 l-40 0 0
210 0 210 -29 0 c-28 0 -38 -13 -155 -209z m111 -208 c-3 -2 -41 -3 -85 -1
l-81 3 82 142 82 141 3 -140 c1 -78 1 -143 -1 -145z"/>
<path d="M5594 5403 c-18 -59 -38 -83 -78 -94 -23 -6 -47 -13 -54 -15 -8 -2
-12 -15 -10 -31 3 -27 6 -28 66 -31 l62 -3 0 -229 0 -230 35 0 35 0 0 325 0
325 -25 0 c-16 0 -28 -7 -31 -17z"/>
<path d="M5954 5401 c-80 -49 -109 -131 -109 -316 0 -146 17 -222 61 -275 91
-108 224 -65 271 88 28 88 25 307 -5 386 -44 119 -135 168 -218 117z m109 -71
c46 -37 62 -99 62 -250 0 -124 -2 -139 -25 -185 -14 -27 -37 -57 -52 -65 -25
-13 -31 -13 -55 0 -16 8 -39 38 -53 65 -23 46 -25 61 -25 185 0 107 4 145 18
182 19 50 57 88 87 88 10 0 29 -9 43 -20z"/>
<path d="M6360 5398 c-54 -27 -88 -83 -97 -157 l-6 -51 35 0 c34 0 36 2 42 41
14 90 63 131 133 113 47 -12 75 -51 80 -111 6 -66 -13 -91 -131 -177 -115 -82
-153 -137 -163 -230 l-6 -56 187 0 186 0 0 40 0 40 -145 0 c-101 0 -145 3
-145 11 0 31 49 83 128 137 48 33 97 71 109 84 91 98 57 283 -60 327 -45 17
-99 13 -147 -11z"/>
<path d="M6796 5211 c-99 -164 -126 -217 -126 -245 l0 -36 120 0 120 0 0 -80
0 -80 35 0 35 0 0 80 0 80 40 0 c39 0 40 1 40 35 0 34 -1 35 -40 35 l-40 0 0
210 0 210 -29 0 c-28 0 -38 -13 -155 -209z m111 -208 c-3 -2 -41 -3 -85 -1
l-81 3 82 142 82 141 3 -140 c1 -78 1 -143 -1 -145z"/>
<path d="M4810 5253 c1 -4 30 -57 65 -118 l63 -110 -40 -75 c-23 -41 -54 -99
-70 -127 l-30 -53 44 0 43 0 46 92 46 92 38 -70 c64 -117 61 -114 105 -114 22
0 40 2 40 5 0 3 -29 57 -65 120 -36 63 -65 120 -65 126 0 11 55 112 112 207
l20 32 -44 0 -43 0 -46 -87 -47 -86 -43 84 c-44 84 -44 84 -86 87 -24 2 -43 0
-43 -5z"/>
<path d="M9130 191 c0 -13 -8 -21 -22 -23 -18 -2 -23 -10 -23 -33 0 -25 4 -30
28 -33 27 -3 27 -2 27 52 0 31 -2 56 -5 56 -3 0 -5 -9 -5 -19z m-3 -47 c8 -21
-13 -42 -28 -27 -13 13 -5 43 11 43 6 0 13 -7 17 -16z"/>
<path d="M9211 157 c-1 -58 -1 -58 27 -55 23 3 27 8 27 33 0 23 -5 31 -22 33
-13 2 -23 12 -26 25 -2 12 -5 -4 -6 -36z m46 -13 c8 -21 -13 -42 -28 -27 -13
13 -5 43 11 43 6 0 13 -7 17 -16z"/>
<path d="M8601 143 c1 -26 3 -40 6 -31 2 9 14 18 26 20 16 2 22 10 22 28 0 20
-6 26 -27 28 -27 3 -28 2 -27 -45z m44 17 c0 -8 -8 -16 -17 -18 -13 -2 -18 3
-18 18 0 15 5 20 18 18 9 -2 17 -10 17 -18z"/>
<path d="M9423 145 c0 -27 2 -40 4 -27 3 17 11 22 33 22 22 0 30 -5 33 -22 2
-13 4 0 4 27 0 28 -2 40 -4 28 -3 -18 -11 -23 -33 -23 -22 0 -30 5 -33 23 -2
12 -4 0 -4 -28z"/>
<path d="M9522 183 c12 -3 18 -17 21 -46 l4 -42 1 42 c2 30 7 43 20 46 9 3 -1
5 -23 5 -22 0 -32 -2 -23 -5z"/>
<path d="M9601 143 l2 -48 7 40 c6 39 6 39 14 13 10 -36 32 -36 42 0 8 26 8
26 14 -13 l7 -40 2 48 c1 54 -11 61 -30 15 l-13 -31 -15 31 c-21 45 -31 40
-30 -15z"/>
<path d="M9722 148 l-2 -48 33 1 c29 2 29 2 5 6 -24 4 -27 10 -31 46 l-4 42
-1 -47z"/>
<path d="M9842 178 c-27 -27 -7 -78 29 -78 10 0 20 4 23 8 3 5 -4 8 -16 8 -29
-1 -46 28 -28 49 7 9 22 14 32 12 10 -3 16 -1 12 4 -8 13 -38 11 -52 -3z"/>
<path d="M9940 176 c-28 -35 11 -93 48 -70 35 22 22 84 -18 84 -10 0 -23 -7
-30 -14z m54 -19 c16 -25 -16 -56 -38 -37 -19 15 -20 32 -4 48 15 15 28 11 42
-11z"/>
<path d="M10031 143 l2 -48 7 40 c6 39 6 39 14 13 10 -36 32 -36 42 0 8 26 8
26 14 -13 l7 -40 2 48 c1 54 -11 61 -30 15 l-13 -31 -15 31 c-21 45 -31 40
-30 -15z"/>
<path d="M8674 156 c-11 -29 0 -51 26 -51 21 0 25 5 25 30 0 24 -5 31 -23 33
-13 2 -24 -3 -28 -12z m43 -12 c8 -21 -13 -42 -28 -27 -13 13 -5 43 11 43 6 0
13 -7 17 -16z"/>
<path d="M8757 145 c8 -41 20 -51 28 -24 l7 22 13 -23 c13 -25 19 -20 28 25
l6 30 -13 -28 -12 -28 -12 23 -11 23 -7 -24 -7 -23 -13 28 -13 29 6 -30z"/>
<path d="M8864 156 c-13 -34 25 -71 48 -48 8 8 5 9 -9 6 -12 -3 -24 -1 -27 5
-5 7 3 11 19 11 20 0 26 4 23 18 -4 22 -46 29 -54 8z m41 -6 c3 -5 -3 -10 -15
-10 -12 0 -18 5 -15 10 3 6 10 10 15 10 5 0 12 -4 15 -10z"/>
<path d="M8951 133 c1 -27 3 -31 6 -13 2 14 12 31 21 38 14 11 13 12 -6 12
-19 0 -22 -5 -21 -37z"/>
<path d="M9004 156 c-13 -34 25 -71 48 -48 8 8 5 9 -9 6 -12 -3 -24 -1 -27 5
-5 7 3 11 19 11 20 0 26 4 23 18 -4 22 -46 29 -54 8z m41 -6 c3 -5 -3 -10 -15
-10 -12 0 -18 5 -15 10 3 6 10 10 15 10 5 0 12 -4 15 -10z"/>
<path d="M9304 143 c20 -39 20 -38 0 -57 -8 -9 -11 -16 -6 -16 11 0 65 90 58
97 -2 3 -10 -5 -16 -18 l-12 -22 -20 24 -19 24 15 -32z"/>
</g>
</svg>
